<?xml version="1.0" encoding="utf-8"?>
<svg xmlns="http://www.w3.org/2000/svg" viewBox="0 0 740.88 204">
  <defs>
    <linearGradient id="b" x1="503.17" x2="593.37" y1="192.18" y2="80.39" data-name="Gradiente sem nome 27" gradientUnits="userSpaceOnUse">
      <stop offset="0.23" stop-color="#f27c23"/>
      <stop offset="1" stop-color="#ffbf52"/>
    </linearGradient>
    <linearGradient id="c" x1="425.27" x2="478.21" y1="122.11" y2="84.85" data-name="Gradiente sem nome 32" gradientUnits="userSpaceOnUse">
      <stop offset="0" stop-color="#ee5027"/>
      <stop offset="0.37" stop-color="#ef791f"/>
    </linearGradient>
    <linearGradient id="d" x1="472.33" x2="564.97" y1="107.63" y2="-19.65" data-name="Gradiente sem nome 24" gradientUnits="userSpaceOnUse">
      <stop offset="0" stop-color="#f69c22"/>
      <stop offset="0.68" stop-color="#fae793"/>
    </linearGradient>
    <linearGradient id="a" x1="673.58" x2="673.58" y1="189.16" y2="41.01" data-name="Gradiente sem nome 45" gradientUnits="userSpaceOnUse">
      <stop offset="0" stop-color="#132544"/>
      <stop offset="0.84" stop-color="#184e80"/>
      <stop offset="0.94" stop-color="#185083"/>
    </linearGradient>
    <linearGradient id="e" x1="157.21" x2="157.21" y1="188.58" y2="40.8" data-name="Gradiente sem nome 45" href="#a"/>
    <linearGradient id="f" x1="280.07" x2="280.07" y1="188.44" y2="40.67" data-name="Gradiente sem nome 45" href="#a"/>
    <linearGradient id="g" x1="48.48" x2="48.48" y1="188.23" y2="40.97" data-name="Gradiente sem nome 45" href="#a"/>
    <linearGradient id="h" x1="386.66" x2="386.66" y1="187.95" y2="40.5" data-name="Gradiente sem nome 45" href="#a"/>
  </defs>
  <path d="M 600.959 101.121 L 601.484 102.112 C 601.074 104.332 601.13 106.97 601.55 109.2 L 601.55 111.13 C 600.65 157.22 560.24 197.66 514.62 198.07 L 511.24 198.07 C 509.82 197.65 508.31 197.65 506.89 198.07 L 502.06 198.07 C 497.34 196.76 492.43 196.45 487.66 195.33 C 480.19 193.57 472.08 190.41 465.35 186.73 C 464.07 186.03 458.75 183.08 458.11 182.36 C 457.27 181.4 459.27 178.16 459.96 176.98 C 474.13 152.72 515.34 161.12 538.86 156.87 C 542.5 156.21 546.01 155.01 549.23 153.23 C 556.96 148.95 563.48 139.48 573.55 144.25 C 579.31 132.52 567.13 126.49 557.83 123.69 C 557.29 123.53 556.38 123.57 557.13 122.72 C 557.26 122.57 559.93 121.23 560.66 120.69 C 577.93 107.83 589.82 88.38 591.9 66.68 C 593.04 67.31 593.54 68.95 594.05 70.08 C 598.25 79.3 600.21 90.15 601.11 100.2 L 601.55 100.97 L 600.959 101.121 Z" style="fill:url(#b)"/>
  <path d="M 417.07 100.51 C 417.48 95.67 418.93 88.31 420.11 83.5 C 421.24 78.92 423.02 74.51 424.56 70.08 C 425.71 73.13 426.21 76.4 427.21 79.51 C 435.47 105.32 456.48 124.77 481.8 133.6 C 481.77 135.16 472.62 141.39 470.83 142.44 C 458.25 149.82 442.92 152.41 428.55 149.77 C 424.59 142.41 421.42 134.41 419.64 126.2 C 418.69 121.81 417.44 115.51 417.08 111.14 L 417.08 108.72 C 416.903 106.849 416.952 104.84 417.08 102.92 C 417.13 102.13 417.01 101.3 417.08 100.5 L 417.07 100.51 Z" style="fill:url(#c)"/>
  <path d="M505.93 14.05c2.06-.07 4.21-.07 6.28 0 30.28.97 58.27 16.7 74.35 42.26-4.38 9.3-11.99 17.44-20.9 22.55-5.95 3.41-12.42 5.06-18.33 8.71-11.52 7.12-20.43 18.99-23.53 32.26-6.54-5.73-13.4-10.14-21.4-13.61-22.93-9.93-49-9.07-65.51-30.6-1.82-2.38-7.6-11.47-7.74-14.04-.11-2.09 8.7-13.72 10.62-15.91 16.71-19.08 40.69-30.7 66.18-31.62Z" style="fill:url(#d)"/>
  <path d="M740.61 61.13c.6 15.59.03 32.02 0 47.7-.05 23.12-.46 46.44-.24 69.63-.68 5.48-4.22 9.95-9.95 10.43-3.9.33-15.86.49-19.31-.35-4.25-1.04-7.03-4.94-7.66-9.12-.26-17.43.52-34.98-.4-52.34-1.13-2.6-3.25-.68-4.52.68-5.36 5.71-15.6 22.54-21.94 25.05-4.24 1.68-8.35-.27-11.39-3.24-6.37-6.2-11.62-15.88-17.77-22.51-2.03-1.98-3.99-1.71-4.41 1.29v50.11c-.72 6.24-4.67 9.81-10.9 10.19-4.05.24-16.02.48-19.38-.78-3.58-1.35-5.84-5.04-6.41-8.7V56.92c1.6-14.69 11.74-16.69 24.59-15.7 6.31.48 11.02 4.21 14.98 8.76 6.74 7.76 12.72 16.75 19.55 24.33 6.26 6.95 10.38 5.58 16.2-.84 6.95-7.65 12.96-16.82 19.91-24.45s14.49-8.28 24.33-7.55c12.13.9 14.35 9.2 14.75 19.65Z" style="fill:url(#a)"/>
  <path d="M123.22 41.06c10.43-1.06 21.75.89 22.6 13.46.69 10.03-.85 20.8-.26 30.94.36 6.17 2.89 8.27 9.01 8.74 8.1.62 14.4-.17 15-9.46s-.38-20.11.22-29.75c.82-13.04 11.66-14.99 22.64-13.98 4.98.46 9.84 3.56 12.1 8.04 1.98 3.93 1.6 8.17 1.96 12.42 3.28 38.62 6.06 77.34 8.61 116-2.13 11.24-12.53 11.47-21.93 10.94-7.62-.43-14.45-4.6-16.5-12.27-2.75-10.32-3.33-22.87-5.51-33.57-.95-4.66-2.41-9.06-7.47-10.51-2.94-.84-10.04-.81-13-.03-5 1.31-6.42 5.78-7.45 10.3-2.55 11.17-3.85 22.89-6.42 34.09-1.66 5.62-7.61 10.97-13.5 11.68-3.82.46-13.66.47-17.01-1.09-3.66-1.7-6.58-5.76-7-9.78 2.91-40.91 7.04-81.77 10.31-122.68.88-6.94 6.57-12.78 13.59-13.5Z" style="fill:url(#e)"/>
  <path d="M341.18 174.98 306.31 52.1c-2.62-6.25-9.54-10.64-16.22-11.12-5.87-.42-15.69-.44-21.52.08-6.63.59-13.16 5.04-15.55 11.31l-34.3 123.93c-.75 5.51 3.28 11.07 8.82 11.82 3.44.46 11.74.37 15.3.07 4.4-.38 9.54-3.52 12.34-6.85 5.65-6.72 3-14.02 11.68-19.73 5.55-3.64 19.22-4.16 25.1-1.44 10.95 5.04 7.69 14.16 14.07 21.41 2.43 2.75 6.3 5.32 9.88 6.19 3.16.76 12.71.75 16.14.41 6.38-.64 10.72-7.03 9.13-13.2m-55.14-45.49c-2.5.86-10.4.76-12.79-.48-3.96-2.05-4.52-5.99-3.66-9.97 1.79-8.24 5.25-16.65 7.23-24.9.47-1.28 1.63-2.33 3.01-2.52 1.54-.21 3.09.73 3.78 2.11 2.08 7.98 4.97 15.98 6.95 23.97 1.23 4.96 1.14 9.85-4.52 11.79" style="fill:url(#f)"/>
  <path d="M43.84 41.06c12.93-.64 27.11 2.12 38.82 7.56 1.28.59 7.96 3.97 8.35 4.84l.1 22.86c-2.74 12.88-13.77 2.9-20.51-.06-7.58-3.33-27.52-8.27-30.66 2.84-2.23 7.88 5.8 11.9 11.47 15.14 17.67 10.11 40.89 19.12 44.7 41.86 2.11 12.59-.67 26.76-9.16 36.49-19.8 22.69-58.34 17.17-82.71 5.48-.7-.34-2.67-1.12-2.79-1.76l.03-24.19c2.94-12.94 13.76-3.74 20.75-.66 7.61 3.35 19.09 5.66 27.19 3.27 5.06-1.49 7.78-6.85 6.11-11.86-2.46-7.38-17.91-12.86-24.58-16.42C12.5 116.62-.66 103.64.23 81.13c1-25.27 19.61-38.88 43.61-40.07" style="fill:url(#g)"/>
  <path d="M381.34 151.26h36.81c6.76 0 10 7.9 10.43 13.55.6 7.85.32 22.23-10.18 23.14h-57.81c-10.63-.8-15.14-8.15-15.72-18.1.93-37.05-1.31-74.76.26-111.71.18-4.19-.36-6.49 1.87-10.36 4.25-7.4 13.35-7.74 21.02-7.03 6.59.61 13.31 7.28 13.31 14.02v96.49Z" style="fill:url(#h)"/>
  <text style="fill: rgb(25, 79, 129); font-family: Arial, sans-serif; font-size: 28px; white-space: pre;" x="7.47" y="29.381" transform="matrix(1.137234, 0, 0, 1.013018, -1.025138, -0.018946)">CATHOLIC COMMUNITY</text>
  <text style="white-space: pre; fill: rgb(51, 51, 51); font-family: Arial, sans-serif; font-size: 28px;" x="38.951" y="59.817"> </text>
  <text style="white-space: pre; fill: rgb(51, 51, 51); font-family: Arial, sans-serif; font-size: 28px;" x="246.689" y="240.972"> </text>
</svg>