<?xml version="1.0" encoding="utf-8"?>
<svg xmlns="http://www.w3.org/2000/svg" viewBox="0 0 185.5 186">
  <defs>
    <linearGradient gradientUnits="userSpaceOnUse" x1="113.143" y1="54.078" x2="113.143" y2="185.486" id="gradient-0">
      <stop offset="0" style="stop-color: rgb(89.804% 17.255% 17.255%)"/>
      <stop offset="1" style="stop-color: rgb(60.902% 0% 6.4712%)"/>
    </linearGradient>
    <linearGradient gradientUnits="userSpaceOnUse" x1="32.796" y1="57.478" x2="32.796" y2="138.175" id="gradient-1">
      <stop offset="0" style="stop-color: rgb(89.804% 17.255% 17.255%)"/>
      <stop offset="1" style="stop-color: rgb(60.902% 0% 6.4712%)"/>
    </linearGradient>
    <linearGradient gradientUnits="userSpaceOnUse" x1="91.268" y1="1.395" x2="91.268" y2="107.228" id="gradient-2">
      <stop offset="0" style="stop-color: rgb(89.804% 17.255% 17.255%)"/>
      <stop offset="1" style="stop-color: rgb(60.902% 0% 6.4712%)"/>
    </linearGradient>
  </defs>
  <path d="M 184.464 87.498 C 184.464 87.498 184.803 93.165 184.816 93.475 C 184.838 93.997 184.825 94.643 184.849 95.239 C 184.849 95.239 184.883 96.169 184.964 96.598 L 184.964 98.528 C 184.064 144.618 143.654 185.058 98.034 185.468 L 94.654 185.468 C 94.448 185.407 94.207 185.487 94.009 185.486 C 93.57 185.482 93.181 185.478 92.708 185.469 C 92.295 185.462 91.942 185.356 91.532 185.415 C 91.17 185.468 90.658 185.363 90.304 185.468 L 85.565 185.285 C 80.703 184.625 75.844 183.848 71.074 182.728 C 63.604 180.968 55.494 177.808 48.764 174.128 C 47.484 173.428 42.164 170.478 41.524 169.758 C 40.684 168.798 42.684 165.558 43.374 164.378 C 57.544 140.118 98.754 148.518 122.274 144.268 C 125.914 143.608 129.424 142.408 132.644 140.628 C 140.374 136.348 146.894 126.878 156.964 131.648 C 162.724 119.918 150.544 113.888 141.244 111.088 C 140.704 110.928 139.794 110.968 140.544 110.118 C 140.674 109.968 143.344 108.628 144.074 108.088 C 161.344 95.228 173.234 75.778 175.314 54.078 C 176.454 54.708 176.954 56.348 177.464 57.478 C 181.664 66.698 183.564 77.448 184.464 87.498 Z" style="stroke-width: 1; fill: url(&quot;#gradient-0&quot;);"/>
  <path d="M 0.484 87.908 C 0.894 83.068 2.344 75.708 3.524 70.898 C 4.654 66.318 6.434 61.908 7.974 57.478 C 9.124 60.528 9.624 63.798 10.624 66.908 C 18.884 92.718 39.894 112.168 65.214 120.998 C 65.184 122.558 56.034 128.788 54.244 129.838 C 41.664 137.218 26.334 139.808 11.964 137.168 C 8.004 129.808 4.834 121.808 3.054 113.598 C 2.104 109.208 0.854 102.908 0.494 98.538 L 0.494 96.118 C 0.317 94.247 0.366 92.238 0.494 90.318 C 0.544 89.528 0.424 88.698 0.494 87.898 L 0.484 87.908 Z" style="stroke-width: 1; fill: url(&quot;#gradient-1&quot;);"/>
  <path d="M 89.344 1.448 C 91.404 1.378 93.554 1.378 95.624 1.448 C 125.904 2.418 153.894 18.148 169.974 43.708 C 165.594 53.008 157.984 61.148 149.074 66.258 C 143.124 69.668 136.654 71.318 130.744 74.968 C 119.224 82.088 110.314 93.958 107.214 107.228 C 100.674 101.498 93.814 97.088 85.814 93.618 C 62.884 83.688 36.814 84.548 20.304 63.018 C 18.484 60.638 12.704 51.548 12.564 48.978 C 12.454 46.888 21.264 35.258 23.184 33.068 C 39.894 13.988 63.874 2.368 89.364 1.448 L 89.344 1.448 Z" style="stroke-width: 1; fill-rule: nonzero; paint-order: fill; fill: url(&quot;#gradient-2&quot;);"/>
</svg>