<?xml version="1.0" encoding="UTF-8"?>
<svg version="1.1" xmlns="http://www.w3.org/2000/svg" width="1536" height="599">
<path d="M0 0 C2.22439425 -0.019238 4.44494406 -0.08121431 6.66845703 -0.14453125 C17.61988315 -0.30827026 25.35741797 1.95206459 34.23095703 8.76171875 C39.60707646 14.46944929 44.50372127 20.42764751 49.27392578 26.640625 C52.5055 30.83449504 55.87650393 34.90743134 59.25830078 38.98046875 C64.17153812 44.89809176 68.98867063 50.87351191 73.61962891 57.015625 C76.64016828 60.94757515 79.78514752 64.24389212 84.25830078 66.48046875 C89.99326099 67.04271975 93.64926528 65.76825167 98.25830078 62.48046875 C100.20239034 60.48435426 101.91635535 58.58454449 103.63330078 56.41796875 C104.09881348 55.84868652 104.56432617 55.2794043 105.04394531 54.69287109 C105.99629682 53.52636218 106.94409503 52.35612047 107.88720703 51.18212891 C109.94096613 48.63321492 112.04291954 46.12437815 114.13330078 43.60546875 C116.61499284 40.57327613 118.9765213 37.52159983 121.19580078 34.29296875 C121.87642578 33.36484375 122.55705078 32.43671875 123.25830078 31.48046875 C123.91830078 31.48046875 124.57830078 31.48046875 125.25830078 31.48046875 C125.51224609 30.9184375 125.76619141 30.35640625 126.02783203 29.77734375 C128.45740926 25.24213293 131.99479542 21.43478912 135.25830078 17.48046875 C135.84095703 16.74828125 136.42361328 16.01609375 137.02392578 15.26171875 C142.84984759 8.183496 150.20004728 2.62728264 159.25830078 0.48046875 C164.22208177 0.02607178 169.15158101 0.01618531 174.13330078 0.04296875 C175.44427734 0.02298828 176.75525391 0.00300781 178.10595703 -0.01757812 C185.99526513 -0.0136216 192.21680225 0.82474532 199.25830078 4.48046875 C199.25830078 5.14046875 199.25830078 5.80046875 199.25830078 6.48046875 C199.86416016 6.73699219 200.47001953 6.99351562 201.09423828 7.2578125 C203.50484196 8.61976007 204.42537142 9.71498477 205.88330078 12.04296875 C206.28806641 12.66300781 206.69283203 13.28304687 207.10986328 13.921875 C210.14825034 20.69107065 210.55160886 27.7749843 210.51899719 35.0954895 C210.52282274 36.0211232 210.52664829 36.94675689 210.53058976 37.9004401 C210.54084839 40.9794214 210.53694129 44.05821374 210.53295898 47.13720703 C210.53730928 49.35375134 210.54249349 51.57029414 210.54844666 53.78683472 C210.56181044 59.79072954 210.56241847 65.79456132 210.55988336 71.79846811 C210.55881234 76.81365745 210.56370012 81.82883411 210.56848878 86.84402072 C210.58020708 99.34924083 210.57936395 111.85443036 210.57293197 124.3596506 C210.56775889 135.21168318 210.57903154 146.06362611 210.59803019 156.91564097 C210.61741231 168.07257658 210.62537284 179.22947953 210.62190694 190.38643444 C210.62009354 196.64471054 210.62273645 202.90290444 210.63662148 209.16116714 C210.64918417 215.04304872 210.64727037 220.92475041 210.63421059 226.80662918 C210.63184226 228.96452393 210.63458864 231.12243129 210.64283371 233.28031158 C210.65328045 236.22688877 210.64521704 239.17285992 210.63252258 242.11941528 C210.63989687 242.97224063 210.64727115 243.82506598 210.6548689 244.70373452 C210.59310744 251.5224749 209.01017272 256.94937725 204.44580078 262.23046875 C203.98560547 262.7821875 203.52541016 263.33390625 203.05126953 263.90234375 C197.98252392 268.36372333 193.11259109 268.93853744 186.67626953 268.9140625 C185.86265457 268.91930435 185.04903961 268.9245462 184.21076965 268.9299469 C182.49542375 268.93634618 180.78003383 268.93505731 179.06469727 268.92651367 C176.46370679 268.91802717 173.86493281 268.94675385 171.26416016 268.97851562 C154.37213579 269.05358271 154.37213579 269.05358271 148.25830078 264.48046875 C146.10205078 262.2265625 146.10205078 262.2265625 144.75830078 259.91796875 C144.29423828 259.15355469 143.83017578 258.38914062 143.35205078 257.6015625 C141.73341308 254.46256152 141.13161917 251.91977048 141.1000824 248.43721008 C141.08539917 247.20676468 141.08539917 247.20676468 141.07041931 245.95146179 C141.06466385 245.05522598 141.05890839 244.15899017 141.05297852 243.2355957 C141.04307892 242.28906128 141.03317932 241.34252686 141.02297974 240.36730957 C140.99135839 237.23448194 140.96660472 234.10163914 140.94189453 230.96875 C140.92132556 228.79826968 140.9003291 226.62779338 140.87892151 224.45732117 C140.82369501 218.74123379 140.77428824 213.02511022 140.72607422 207.30895996 C140.67586345 201.47742488 140.62017516 195.64594242 140.56494141 189.81445312 C140.45735274 178.36983661 140.3559093 166.92517443 140.25830078 155.48046875 C136.5990893 156.24954996 135.37566595 157.12236689 133.12939453 160.15625 C132.56929687 160.90197266 132.00919922 161.64769531 131.43212891 162.41601562 C130.85914063 163.20041016 130.28615234 163.98480469 129.69580078 164.79296875 C129.11894531 165.56576172 128.54208984 166.33855469 127.94775391 167.13476562 C126.87012752 168.58030137 125.79665436 170.0289495 124.72875977 171.48168945 C124.2435083 172.14128662 123.75825684 172.80088379 123.25830078 173.48046875 C122.74275635 174.22449951 122.22721191 174.96853027 121.69604492 175.73510742 C121.22158936 176.31107666 120.74713379 176.8870459 120.25830078 177.48046875 C119.59830078 177.48046875 118.93830078 177.48046875 118.25830078 177.48046875 C118.02498047 178.01027344 117.79166016 178.54007813 117.55126953 179.0859375 C112.22078481 188.95780196 103.29653632 201.12957582 92.25830078 204.48046875 C86.13490229 205.27424263 81.40563472 203.70076419 76.25830078 200.48046875 C71.36182237 196.38606559 67.3272936 192.62245266 65.25830078 186.48046875 C64.59830078 186.48046875 63.93830078 186.48046875 63.25830078 186.48046875 C62.05664062 185.17041016 62.05664062 185.17041016 60.71923828 183.33203125 C60.22496338 182.66083252 59.73068848 181.98963379 59.22143555 181.2980957 C58.69735107 180.57452881 58.1732666 179.85096191 57.63330078 179.10546875 C56.54718779 177.63198142 55.45994754 176.15932433 54.37158203 174.6875 C53.84000488 173.96643066 53.30842773 173.24536133 52.76074219 172.50244141 C48.29015312 166.48596129 43.73432428 160.61424078 38.25830078 155.48046875 C37.59830078 155.81046875 36.93830078 156.14046875 36.25830078 156.48046875 C36.24950142 158.19815712 36.24950142 158.19815712 36.24052429 159.95054626 C36.18320786 170.76424578 36.11039961 181.57774593 36.02258587 192.39124203 C35.9779379 197.95002214 35.9386694 203.50872989 35.91186523 209.06762695 C35.88577681 214.43645117 35.84533502 219.80499613 35.79511452 225.17364693 C35.77848327 227.21762164 35.76694577 229.26164462 35.76068687 231.30567741 C35.75100508 234.17795677 35.72289707 237.0495277 35.69067383 239.92163086 C35.69282646 241.17752266 35.69282646 241.17752266 35.69502258 242.45878601 C35.58341784 249.5342577 34.28341956 257.00135096 29.38330078 262.41796875 C28.91150391 262.96324219 28.43970703 263.50851562 27.95361328 264.0703125 C23.21585381 268.01116772 17.93854272 267.81443839 12.08251953 267.8515625 C11.19852982 267.86059097 10.3145401 267.86961945 9.40376282 267.87892151 C7.53703177 267.89339756 5.6702503 267.90230416 3.8034668 267.90600586 C0.96526399 267.91788727 -1.87075257 267.96708447 -4.70849609 268.01757812 C-6.52814702 268.0270453 -8.34781121 268.03427893 -10.16748047 268.0390625 C-11.00732986 268.05859482 -11.84717926 268.07812714 -12.71247864 268.09825134 C-18.88788654 268.05157547 -22.92983443 266.35391759 -27.74169922 262.48046875 C-29.58154297 260.34765625 -29.58154297 260.34765625 -30.67919922 258.35546875 C-31.05947266 257.69289063 -31.43974609 257.0303125 -31.83154297 256.34765625 C-34.03853553 251.82000628 -33.88992675 247.57854194 -33.88887024 242.65858459 C-33.89254693 241.74568883 -33.89622362 240.83279306 -33.90001172 239.89223379 C-33.91106217 236.82015869 -33.91489477 233.7481174 -33.91870117 230.67602539 C-33.92496497 228.47833142 -33.9316117 226.28063852 -33.93861389 224.08294678 C-33.95967276 216.85218038 -33.97002037 209.62141373 -33.97998047 202.390625 C-33.98402783 199.90113247 -33.98814475 197.41164005 -33.99233055 194.92214775 C-34.00920426 184.56368495 -34.0238371 174.20522373 -34.03107929 163.84674931 C-34.03298908 161.15881918 -34.03490942 158.47088907 -34.03686523 155.78295898 C-34.03734897 155.11491489 -34.03783271 154.4468708 -34.03833111 153.75858294 C-34.04662045 142.95156178 -34.0719374 132.1446517 -34.10444591 121.33767898 C-34.13757992 110.23176572 -34.15520165 99.12589858 -34.15872353 88.01993459 C-34.16107158 81.78875439 -34.16999981 75.55774959 -34.19518471 69.32661629 C-34.21851705 63.45872744 -34.22267772 57.59112883 -34.21242332 51.72320557 C-34.21192906 49.57546967 -34.21821716 47.42771925 -34.23197937 45.28002739 C-34.39345868 18.57418812 -34.39345868 18.57418812 -25.74169922 8.48046875 C-17.25563868 1.22173101 -11.03860885 0.05760526 0 0 Z " fill="#000000" transform="translate(1224.74169921875,171.51953125)"/>
<path d="M0 0 C1.28970703 -0.01836914 1.28970703 -0.01836914 2.60546875 -0.03710938 C11.25939707 -0.05680724 19.47204549 1.22041709 26.125 7.1875 C30.50120943 13.21546744 33.24202518 18.13253998 33.28271484 25.57739258 C33.28779556 26.23289597 33.29287628 26.88839935 33.29811096 27.56376648 C33.30881928 28.98898287 33.31743766 30.41421613 33.32423019 31.83945656 C33.33601466 34.09681109 33.355467 36.35397391 33.37734985 38.61125183 C33.43897518 45.02991334 33.49297839 51.44855628 33.52636719 57.86743164 C33.54733562 61.79267481 33.58265818 65.71757017 33.62712479 69.64261436 C33.64127043 71.1372537 33.650004 72.63195459 33.65317917 74.12665749 C33.65809889 76.22128183 33.68128276 78.31498691 33.70849609 80.40942383 C33.71658295 81.60030106 33.7246698 82.79117828 33.73300171 84.0181427 C34.16322732 87.49657286 35.06031182 89.38494115 37.125 92.1875 C43.66751997 96.69958274 54.00204979 95.84237551 61.5390625 94.87890625 C65.83300924 93.97026209 68.54381024 92.76145505 71.125 89.1875 C72.83549726 84.87140119 73.39103146 81.20255175 73.45629883 76.57470703 C73.48005081 75.27961212 73.5038028 73.98451721 73.52827454 72.650177 C73.5367724 71.96527317 73.54527027 71.28036934 73.55402565 70.57471085 C73.58246187 68.41257041 73.62517583 66.25114017 73.67204285 64.08932495 C73.80373566 57.94641416 73.91840913 51.8034136 74.00317383 45.65966797 C74.05617457 41.89147078 74.13285191 38.12435467 74.22412682 34.35689926 C74.25411892 32.92905352 74.2752748 31.50099163 74.28708839 30.07287979 C74.3577504 21.85362644 74.58536813 15.55837861 80.125 9.1875 C80.929375 8.259375 81.73375 7.33125 82.5625 6.375 C89.9078978 0.10453847 97.73894472 0.00686972 106.9375 0 C107.78892578 -0.01224609 108.64035156 -0.02449219 109.51757812 -0.03710938 C120.46561688 -0.06212393 127.6794626 1.99308743 135.62890625 9.6328125 C142.28399231 16.90374235 142.65466229 25.40979092 143.125 34.75 C143.23907581 36.66064585 143.353238 38.57128785 143.47009277 40.48176575 C143.55355162 41.8491871 143.6356318 43.21669319 143.71643066 44.58427429 C144.24437068 53.43910135 144.93834272 62.28132968 145.625 71.125 C145.72238968 72.3895401 145.72238968 72.3895401 145.82174683 73.67962646 C146.61183315 83.93459933 147.46046345 94.18022227 148.42797852 104.42016602 C149.17627966 112.46111454 149.74497779 120.51229904 150.30712891 128.56811523 C151.0255708 138.86051659 151.7871858 149.14924301 152.5625 159.4375 C152.62539215 160.27216797 152.6882843 161.10683594 152.75308228 161.96679688 C153.14033005 167.10532402 153.14033005 167.10532402 153.52778625 172.24383545 C154.00613734 178.59191054 154.47856486 184.94041262 154.94921875 191.2890625 C155.15103422 194.00452397 155.35297106 196.71997639 155.55496216 199.4354248 C155.68338995 201.1652915 155.81139169 202.89518989 155.93893433 204.62512207 C156.69738167 215.15444063 156.69738167 215.15444063 157.68359375 225.6640625 C160.30709306 250.95047626 160.30709306 250.95047626 153.8984375 259.375 C147.47464113 265.94028968 141.25853752 268.21417415 132.10546875 268.48828125 C129.84118904 268.50280433 127.57681718 268.50642177 125.3125 268.5 C124.18779297 268.51611328 123.06308594 268.53222656 121.90429688 268.54882812 C113.20808208 268.55388113 104.26613958 267.66237368 97.125 262.1875 C97.125 261.5275 97.125 260.8675 97.125 260.1875 C96.135 259.8575 95.145 259.5275 94.125 259.1875 C87.38095335 252.44345335 85.5250042 242.65217461 84.125 233.5625 C83.96402832 232.57975098 83.80305664 231.59700195 83.63720703 230.58447266 C83.29821612 228.51147599 82.96381408 226.43772419 82.63378906 224.36328125 C82.12329177 221.17683752 81.59249407 217.99444086 81.0546875 214.8125 C79.645716 206.46804911 78.24293003 198.13007764 77.0625 189.75 C75.91086885 182.16337726 74.22243565 173.37439439 67.875 168.4375 C59.31291331 164.54564241 46.95019517 165.15940551 38.125 168.1875 C37.09879212 169.16058653 36.09345911 170.15692397 35.125 171.1875 C34.465 171.1875 33.805 171.1875 33.125 171.1875 C30.81097749 178.16239055 29.26344523 185.17406803 27.87890625 192.38671875 C27.18477644 195.88614003 26.3970349 199.34435747 25.5625 202.8125 C24.58961434 206.94860596 23.79257548 211.05425117 23.17578125 215.2578125 C22.15854418 222.00066852 21.07320766 228.72436305 19.875 235.4375 C19.69582031 236.54351562 19.51664062 237.64953125 19.33203125 238.7890625 C17.13626836 250.87293409 11.46046505 257.92101227 1.6875 264.9375 C-5.40977976 268.39958769 -12.56822265 268.52522566 -20.3125 268.5 C-21.29798828 268.51611328 -22.28347656 268.53222656 -23.29882812 268.54882812 C-32.08844617 268.55465292 -39.98038967 266.95973191 -46.875 261.1875 C-54.74802718 250.3003766 -53.24223109 239.42878042 -51.7253418 226.77050781 C-50.95902606 220.2736263 -50.41805407 213.7738096 -49.9375 207.25 C-49.17094131 196.91028188 -48.33012272 186.57942842 -47.4375 176.25 C-47.37394318 175.51338135 -47.31038635 174.7767627 -47.24490356 174.01782227 C-46.91937964 170.24619229 -46.59303914 166.4746337 -46.26611328 162.703125 C-45.63196892 155.38574127 -45.0030247 148.06791116 -44.375 140.75 C-44.31321564 140.03055206 -44.25143127 139.31110413 -44.18777466 138.56985474 C-43.16847372 126.69437678 -42.17353519 114.81696416 -41.18850708 102.93859863 C-40.49946976 94.63132537 -39.80444046 86.32464932 -39.08984375 78.01953125 C-39.02519424 77.26794235 -38.96054474 76.51635345 -38.89393616 75.74198914 C-38.57464291 72.0338443 -38.25400597 68.32582013 -37.93188477 64.61791992 C-37.35780885 57.98705385 -36.80338986 51.35643458 -36.3125 44.71875 C-36.22685791 43.57559326 -36.14121582 42.43243652 -36.05297852 41.25463867 C-35.89889774 39.16930792 -35.7504297 37.08355027 -35.60913086 34.99731445 C-34.75701296 23.49925607 -32.30113002 13.74108972 -23.66796875 5.66015625 C-16.62776156 -0.12232329 -8.66074589 0.00643443 0 0 Z " fill="#000000" transform="translate(330.875,170.8125)"/>
<path d="M0 0 C0.85280548 -0.0033284 1.70561096 -0.0066568 2.58425903 -0.01008606 C4.37761908 -0.01511892 6.17098837 -0.01749552 7.96435547 -0.01733398 C10.68082372 -0.01951959 13.39688464 -0.03771189 16.11328125 -0.05664062 C30.88500892 -0.10466855 43.4498098 0.59915453 54.8203125 11.16796875 C59.61102517 17.63665052 62.19854147 24.4595989 64.2578125 32.16796875 C64.5480127 33.2048584 64.83821289 34.24174805 65.13720703 35.31005859 C66.04990386 38.59133901 66.93908219 41.87810729 67.8203125 45.16796875 C68.23966064 46.73272949 68.23966064 46.73272949 68.66748047 48.32910156 C69.79947623 52.562356 70.93075431 56.79578211 72.05444336 61.03125 C74.3100882 69.46263465 76.78220805 77.81771734 79.3203125 86.16796875 C82.47788125 96.56000077 85.44557891 106.97957564 88.2265625 117.47827148 C90.6486306 126.60358047 93.22422695 135.68032162 95.83349609 144.75366211 C98.36546299 153.56026312 100.85118207 162.37881655 103.29882812 171.20922852 C104.67452055 176.1523727 106.08553356 181.0826664 107.54455566 186.00193787 C110.67584145 196.56027832 113.60563678 207.16968778 116.5078125 217.79296875 C117.23785279 220.46002348 117.96834617 223.12695341 118.69917297 225.79379272 C119.14827953 227.43314844 119.59687367 229.07264466 120.04484558 230.71231079 C120.24878433 231.45774139 120.45272308 232.203172 120.6628418 232.97119141 C120.85663422 233.68019592 121.05042664 234.38920044 121.25009155 235.11968994 C121.7979976 237.08781188 122.37339199 239.04621756 122.95239258 241.00537109 C124.51999534 246.71753035 124.23650197 251.73437729 121.9921875 257.17578125 C119.15432926 262.00014026 115.01370754 265.29812434 109.85546875 267.34375 C104.35230842 268.75006416 98.64777807 268.49646411 93.0078125 268.48046875 C91.88310547 268.49658203 90.75839844 268.51269531 89.59960938 268.52929688 C76.89944982 268.5366764 67.80250511 265.29867446 58.2578125 256.91796875 C56.8203125 255.16796875 56.8203125 255.16796875 56.8203125 253.16796875 C56.1603125 253.16796875 55.5003125 253.16796875 54.8203125 253.16796875 C51.63436367 246.53492774 48.93721254 239.91154249 46.71484375 232.89453125 C45.85309298 230.26788478 44.87466897 227.72257695 43.8203125 225.16796875 C43.1603125 225.16796875 42.5003125 225.16796875 41.8203125 225.16796875 C40.15364583 223.50130208 38.48697917 221.83463542 36.8203125 220.16796875 C29.51995064 214.69269736 20.55727401 214.83976683 11.8203125 215.16796875 C10.70140625 215.17441406 9.5825 215.18085938 8.4296875 215.1875 C-1.00624854 215.468084 -8.88657888 217.58759555 -16.15234375 223.875 C-20.23193675 228.31544152 -22.28195625 233.31727828 -24.0703125 238.99609375 C-27.61403069 250.18974326 -31.44367692 256.43866732 -41.1796875 263.16796875 C-42.0046875 263.76609375 -42.8296875 264.36421875 -43.6796875 264.98046875 C-51.57383404 268.73018836 -60.13118611 268.50397948 -68.6796875 268.48046875 C-69.85144531 268.49658203 -71.02320313 268.51269531 -72.23046875 268.52929688 C-79.98011637 268.53364572 -87.25648599 268.29867045 -93.51953125 263.30078125 C-99.17819585 256.18940324 -101.00261615 251.30723151 -100.1796875 242.16796875 C-99.21952165 237.85363605 -97.98520996 233.64518727 -96.67669678 229.42440796 C-96.04049191 227.37217748 -95.42070637 225.31559991 -94.80517578 223.25708008 C-94.18172821 221.17221925 -93.55755727 219.08762744 -92.92843628 217.00447083 C-91.21009892 211.31228018 -89.60051271 205.59656795 -88.0546875 199.85546875 C-87.81967529 198.98752686 -87.58466309 198.11958496 -87.3425293 197.2253418 C-86.07480735 192.52960951 -84.82350786 187.82957069 -83.57421875 183.12890625 C-80.26106308 170.6947376 -76.79570824 158.31560421 -73.16992188 145.96932983 C-69.90166731 134.8269033 -66.84635263 123.63783036 -63.91821289 112.40136719 C-62.12179432 105.54187838 -60.15885408 98.76348184 -58.04370117 91.99560547 C-57.06304745 88.78624367 -56.247581 85.56234379 -55.4921875 82.29296875 C-53.20364352 72.7602183 -50.37744665 63.37518102 -47.60546875 53.97460938 C-45.80862696 47.86720549 -44.04384691 41.76040719 -42.47265625 35.58984375 C-42.09149658 34.10701904 -42.09149658 34.10701904 -41.70263672 32.59423828 C-41.2480995 30.80201833 -40.80699387 29.00630424 -40.38330078 27.20654297 C-37.89908106 17.46676242 -32.31420048 10.00325292 -24.1796875 4.16796875 C-16.52164661 0.06544684 -8.48387352 0.01176763 0 0 Z M8.78515625 94.7578125 C6.42201493 97.65653654 5.51359527 100.16595976 4.3828125 103.73046875 C4.17599854 104.37741699 3.96918457 105.02436523 3.75610352 105.69091797 C1.84054781 111.81288649 0.22156633 118.01517485 -1.36376953 124.22949219 C-2.85028802 130.04053579 -4.56032406 135.72171098 -6.48046875 141.40625 C-7.61330388 145.88063232 -7.88412195 149.79957989 -5.4921875 153.85546875 C-5.17894531 154.41621094 -4.86570312 154.97695313 -4.54296875 155.5546875 C-2.08110382 158.4680119 0.26344825 159.95233612 4.09594727 160.4831543 C6.82330449 160.64452272 9.52584552 160.67552084 12.2578125 160.66796875 C13.18658203 160.69632812 14.11535156 160.7246875 15.07226562 160.75390625 C19.59667957 160.76678714 22.80813303 160.69073884 26.39453125 157.75 C30.37715365 153.51084798 31.02318329 151.25036774 30.96987915 145.37298584 C30.72687151 141.7903957 29.77294543 138.50701834 28.73828125 135.08203125 C28.52343582 134.34020599 28.30859039 133.59838074 28.0872345 132.83407593 C27.40404953 130.48399375 26.70621822 128.13856689 26.0078125 125.79296875 C25.55046078 124.2281482 25.09407274 122.66304566 24.63867188 121.09765625 C23.56653583 117.4206015 22.47871037 113.74844187 21.38519287 110.07769775 C20.88026008 108.37063756 20.38777146 106.65990789 19.89697266 104.94873047 C19.64093262 104.0620166 19.38489258 103.17530273 19.12109375 102.26171875 C18.91266846 101.52888672 18.70424316 100.79605469 18.48950195 100.04101562 C17.47147996 97.19159398 16.01213532 95.22280264 13.8203125 93.16796875 C10.78391439 92.86016141 10.78391439 92.86016141 8.78515625 94.7578125 Z " fill="#000000" transform="translate(593.1796875,170.83203125)"/>
<path d="M0 0 C0.82274414 0.24057129 1.64548828 0.48114258 2.49316406 0.72900391 C7.74170403 2.28726219 12.88424475 4.05174251 18 6 C19.82724609 6.69222656 19.82724609 6.69222656 21.69140625 7.3984375 C39.91202887 14.7681195 56.87820194 26.3906039 71 40 C71.5686377 40.53753906 72.13727539 41.07507813 72.72314453 41.62890625 C85.55809536 53.79853923 94.97520954 66.875696 104 82 C104.46792969 82.72316406 104.93585938 83.44632812 105.41796875 84.19140625 C107.01005602 86.70723015 108.04457958 88.36551849 107.83203125 91.390625 C103.94201528 103.59029949 87.19178617 113.2652677 77 120 C76.24589844 120.50144531 75.49179688 121.00289063 74.71484375 121.51953125 C69.1611979 125.03344073 63.33594547 127.6820643 57.30834961 130.25830078 C46.79107184 134.76938505 36.64205061 139.88650371 26.8125 145.75 C26.20075928 146.11464355 25.58901855 146.47928711 24.95874023 146.85498047 C22.22299563 148.52121098 19.69177218 150.24933352 17.19921875 152.265625 C15 154 15 154 13 154 C13 154.66 13 155.32 13 156 C11.89163965 156.98151802 10.73554396 157.90927902 9.5625 158.8125 C-2.62852635 169.21263222 -9.474945 184.9874646 -14 200 C-15.9375 199.1875 -15.9375 199.1875 -18 198 C-18.33 197.01 -18.66 196.02 -19 195 C-19.99 194.67 -20.98 194.34 -22 194 C-22 193.34 -22 192.68 -22 192 C-22.54269531 191.75894531 -23.08539062 191.51789063 -23.64453125 191.26953125 C-26.57941363 189.68771239 -29.05596888 187.73424643 -31.6875 185.6875 C-36.59338558 181.95183245 -41.49538702 178.77312575 -47 176 C-48.17175781 175.39542969 -49.34351563 174.79085937 -50.55078125 174.16796875 C-63.21256766 167.68772495 -76.05308828 161.83424407 -89.5234375 157.23828125 C-113.27963024 148.77680586 -139.238486 139.02705466 -159 123 C-159.84949219 122.32582031 -160.69898438 121.65164062 -161.57421875 120.95703125 C-173.1431754 111.23060368 -179.80378362 98.93065749 -185 85 C-185.45503906 83.83855469 -185.91007813 82.67710937 -186.37890625 81.48046875 C-187.90304659 76.7393237 -188.77751461 73.65058968 -186.6015625 69.03125 C-184.55445147 66.17627523 -182.35244546 63.60665484 -180 61 C-178.85980816 59.44855106 -177.73282968 57.8872205 -176.625 56.3125 C-175.2265625 54.36328125 -175.2265625 54.36328125 -174 53 C-173.34 53 -172.68 53 -172 53 C-171.72905518 52.40380859 -171.45811035 51.80761719 -171.17895508 51.19335938 C-170.01600593 49.02977786 -168.87114511 47.62648939 -167.13671875 45.90625 C-166.57919922 45.35066406 -166.02167969 44.79507813 -165.44726562 44.22265625 C-164.86654297 43.65417969 -164.28582031 43.08570313 -163.6875 42.5 C-163.11837891 41.93152344 -162.54925781 41.36304688 -161.96289062 40.77734375 C-153.09390407 32 -153.09390407 32 -150 32 C-150 31.34 -150 30.68 -150 30 C-146.71783963 27.48072015 -143.19915474 25.31365422 -139.70996094 23.09228516 C-138.12348805 22.07888143 -136.54944867 21.04608446 -134.9765625 20.01171875 C-120.04914366 10.43744882 -104.10931786 3.57447645 -87 -1 C-86.27377441 -1.21027832 -85.54754883 -1.42055664 -84.79931641 -1.63720703 C-58.77603353 -8.97859776 -25.70017201 -7.78931666 0 0 Z " fill="#000000" transform="translate(1063,126)"/>
<path d="M0 0 C1.26070313 0.02835938 2.52140625 0.05671875 3.8203125 0.0859375 C26.59544795 0.84635381 49.259511 7.64749527 69 19 C69.88196045 19.50354004 70.7639209 20.00708008 71.67260742 20.52587891 C75.16806771 24.24170756 74.68406114 27.58656728 74.59375 32.515625 C74.59379028 33.44542175 74.59383057 34.37521851 74.59387207 35.33319092 C74.58851417 37.30015824 74.57091988 39.26712482 74.54199219 41.23388672 C74.50033956 44.22561099 74.50090835 47.21506744 74.5078125 50.20703125 C74.497312 52.12241131 74.48436928 54.03777984 74.46875 55.953125 C74.46854858 56.83985901 74.46834717 57.72659302 74.46813965 58.64019775 C74.35999502 64.39937849 73.46808834 68.76724765 71 74 C68.23284714 76.58441224 65.7126714 77.81580704 61.9296875 78.22265625 C55.05207187 77.91451935 49.80711154 74.37868308 44 71 C30.78529231 63.78632427 19.17013874 59.68921737 4.0625 59.5 C3.07902588 59.48138916 2.09555176 59.46277832 1.08227539 59.44360352 C-6.46987937 59.51001451 -10.68596006 61.11083698 -16.4375 66.125 C-18.77112546 70.41887085 -18.71787618 74.22187788 -18 79 C-13.34898056 90.07385581 1.69693405 95.64298029 11.82128906 100.86328125 C29.66825913 110.17474389 48.91749575 120.42258346 63 135 C63.74121094 135.76699219 64.48242188 136.53398437 65.24609375 137.32421875 C73.97943756 146.7425307 78.77368258 155.56006457 82 168 C82.3403125 169.17949219 82.3403125 169.17949219 82.6875 170.3828125 C87.51384829 189.62117305 83.68141744 211.9154049 74 229 C68.89507767 237.10959543 62.58032603 244.12524733 55 250 C54.34 250.51820313 53.68 251.03640625 53 251.5703125 C28.0585365 269.61508344 -4.70776891 270.30037399 -34 266 C-53.32503776 262.72072921 -72.50499861 255.7475007 -90 247 C-90.12724542 240.16833484 -90.21453763 233.33697762 -90.2746582 226.50439453 C-90.29973266 224.18233825 -90.33380092 221.86036035 -90.37719727 219.53857422 C-90.43815805 216.19218559 -90.46628149 212.84684447 -90.48828125 209.5 C-90.52699089 207.95421265 -90.52699089 207.95421265 -90.56648254 206.37719727 C-90.56904436 199.72657804 -89.4758825 195.07927152 -85 190 C-80.39223131 187.69611565 -74.96009633 188.29357733 -70 189 C-65.03938996 190.77278016 -60.47579813 193.45153468 -55.87646484 195.99121094 C-39.51603285 204.7865928 -19.74145648 209.04722626 -1.578125 204.0546875 C2.35990997 202.44367319 3.81496862 200.61660367 6 197 C7.77508278 191.67475167 7.6287141 187.55811756 5.5625 182.4375 C-1.87547496 171.15317498 -17.50360325 165.7115624 -29.18823242 159.92773438 C-53.19430274 148.03756205 -76.14065093 133.70784677 -87 108 C-87.27328125 107.38125 -87.5465625 106.7625 -87.828125 106.125 C-91.6397181 96.85759716 -92.36701678 87.1111568 -92.3125 77.1875 C-92.30831055 76.13868652 -92.30412109 75.08987305 -92.29980469 74.00927734 C-92.00352213 53.60045258 -85.06575818 36.46815545 -70.86328125 21.765625 C-57.2800187 8.6456388 -38.06821227 1.51582655 -19.375 0.4375 C-18.66206787 0.3957666 -17.94913574 0.3540332 -17.21459961 0.31103516 C-11.46598148 -0.00678306 -5.75728973 -0.16798458 0 0 Z " fill="#000000" transform="translate(192,171)"/>
<path d="M0 0 C7.17981415 6.91520184 9.784014 14.66550497 10.12145996 24.56221008 C10.12463949 25.91818023 10.12218936 27.27417091 10.11523438 28.63012695 C10.1152092 29.39150908 10.11518402 30.1528912 10.11515808 30.9373455 C10.11331709 33.51686156 10.1036956 36.09628448 10.09375 38.67578125 C10.08992769 40.55886292 10.08631336 42.44194503 10.08288574 44.32502747 C10.01920937 71.06754186 9.77577925 97.80984923 9.55461884 124.55144322 C9.49275514 132.03950038 9.43294355 139.52757358 9.37324238 147.01564825 C9.25099086 162.34378339 9.1263558 177.6718981 9 193 C10.29546249 192.99000725 10.29546249 192.99000725 11.61709595 192.97981262 C19.7679408 192.91962727 27.9187107 192.87398787 36.06972694 192.84456348 C40.2599602 192.82892739 44.45000939 192.80772694 48.64013672 192.77368164 C52.68610817 192.74101447 56.73190288 192.72313152 60.77799606 192.71536827 C62.31932735 192.70983793 63.86064929 192.69903846 65.40190506 192.68280983 C67.56583585 192.66093707 69.72904233 192.65803708 71.89306641 192.65942383 C73.12328522 192.65276199 74.35350403 192.64610016 75.6210022 192.63923645 C80.27458232 193.13608261 83.5946077 194.6901198 87.01171875 197.875 C96.34165454 209.70596753 96.17144665 223.50058491 95 238 C93.95086267 245.66569674 91.15828874 251.77743876 85.9765625 257.51171875 C80.4058996 261.70622975 74.00433987 261.28586522 67.36401367 261.25878906 C65.77504524 261.26404602 65.77504524 261.26404602 64.15397644 261.26940918 C60.6585735 261.27819795 57.16337369 261.27238603 53.66796875 261.265625 C51.23187725 261.26697277 48.79578601 261.26891423 46.35969543 261.27142334 C41.25466348 261.274371 36.14970155 261.27008952 31.04467773 261.26074219 C24.51471706 261.24936613 17.98492113 261.2558978 11.45496655 261.26788712 C6.42339345 261.27513085 1.39185909 261.27280592 -3.63971519 261.26763153 C-6.04656685 261.26630104 -8.45342206 261.26792162 -10.86026955 261.27259064 C-14.23221707 261.2776951 -17.603902 261.26988969 -20.97583008 261.25878906 C-21.96262756 261.26283752 -22.94942505 261.26688599 -23.96612549 261.27105713 C-34.38727532 261.20781137 -41.41732646 259.62953416 -49.5625 252.875 C-56.94217519 244.17076772 -58.15472459 235.06199838 -58.13371277 224.01858521 C-58.13597833 223.13690701 -58.13824388 222.25522882 -58.14057809 221.34683311 C-58.14688752 218.40454844 -58.1460907 215.4623102 -58.14526367 212.52001953 C-58.14825704 210.40553732 -58.15165998 208.29105566 -58.15544128 206.17657471 C-58.1642667 200.44102773 -58.16661877 194.70549568 -58.16725707 188.96994257 C-58.16796832 185.38495765 -58.17010406 181.79997651 -58.17275429 178.21499252 C-58.18200241 165.70371002 -58.18608978 153.19243816 -58.18530273 140.68115234 C-58.18470187 129.02561008 -58.19525687 117.37011408 -58.2110464 105.71458352 C-58.22412768 95.70079427 -58.22948639 85.68702014 -58.22884732 75.67322242 C-58.22859254 69.69544273 -58.23143313 63.71770418 -58.24202538 57.73993301 C-58.25171637 52.11747191 -58.25177861 46.49509121 -58.24450874 40.87262726 C-58.2434642 38.81232714 -58.24581804 36.75202199 -58.2518692 34.6917305 C-58.25961043 31.87285371 -58.25493023 29.05425311 -58.24723816 26.23538208 C-58.25238172 25.42592766 -58.25752529 24.61647324 -58.26282471 23.7824899 C-58.20667999 14.43052893 -56.69926114 6.81835912 -50 0 C-37.33147755 -10.71115417 -12.69425988 -10.38621263 0 0 Z " fill="#000000" transform="translate(779,177)"/>
<path d="M0 0 C2 1 2 1 2.67016602 2.79638672 C6.6149122 18.90203803 8.04270104 34.43466414 8 51 C8.00257813 51.84933105 8.00515625 52.69866211 8.0078125 53.57373047 C7.90721208 83.55894457 -2.95287366 115.45213807 -20 140 C-20.77537109 141.18335938 -20.77537109 141.18335938 -21.56640625 142.390625 C-38.72108727 168.01930508 -62.99809873 188.28152127 -91 201 C-92.00289062 201.45890625 -93.00578125 201.9178125 -94.0390625 202.390625 C-135.23188275 220.3202823 -182.8453256 221.32716909 -224.75390625 204.91992188 C-236.04502215 200.29547354 -246.98916787 195.01628757 -257 188 C-257.73089844 187.49082031 -258.46179688 186.98164063 -259.21484375 186.45703125 C-260.82164806 185.32113197 -262.4131869 184.16366294 -264 183 C-263.17934153 176.67871177 -259.53787623 173.22616908 -255 169 C-251.47512157 166.38954656 -247.83777518 164.12006129 -244 162 C-243.40896484 161.67233643 -242.81792969 161.34467285 -242.20898438 161.00708008 C-237.1273701 158.31364719 -232.0723346 156.68354119 -226.5 155.3125 C-225.71625 155.10044922 -224.9325 154.88839844 -224.125 154.66992188 C-211.81829959 151.58351046 -198.74950726 151.84799639 -186.14110565 151.98596573 C-183.96680957 152.00864773 -181.79260853 152.02229162 -179.6182251 152.03366089 C-173.44864248 152.06663646 -167.27921684 152.10831969 -161.10986328 152.17138672 C-131.87029987 152.45995928 -110.1758936 151.14029567 -85.41870117 134.28808594 C-75.61242202 127.62689707 -67.99991283 123.80857982 -56 123.875 C-55.30132813 123.87113281 -54.60265625 123.86726563 -53.8828125 123.86328125 C-50.12925702 123.87036343 -46.64848855 124.10212977 -43 125 C-42.64596657 119.09944291 -42.93352099 115.23856831 -46 110 C-46 109.34 -46 108.68 -46 108 C-46.66 108 -47.32 108 -48 108 C-48.58265625 107.24847656 -49.1653125 106.49695313 -49.765625 105.72265625 C-52.21107439 102.74279921 -54.39917916 101.30823029 -57.75 99.4375 C-58.801875 98.84710938 -59.85375 98.25671875 -60.9375 97.6484375 C-64.59033197 95.68224478 -68.26131865 93.79744296 -72 92 C-70.48644596 87.67697309 -67.21723979 85.73701044 -63.5625 83.3125 C-62.68368164 82.70825195 -62.68368164 82.70825195 -61.78710938 82.09179688 C-59.21158968 80.34652417 -56.96569289 78.9885643 -54 78 C-54 77.34 -54 76.68 -54 76 C-52.56640625 74.58984375 -52.56640625 74.58984375 -50.5625 72.9375 C-41.23857923 64.9549152 -30.5822249 55.16444979 -25 44 C-24.34 44 -23.68 44 -23 44 C-22.87633057 43.40864258 -22.75266113 42.81728516 -22.62524414 42.20800781 C-21.62326366 38.66958084 -19.43551403 35.79894143 -17.4375 32.75 C-12.70990869 25.37516184 -8.70036041 17.79620692 -4.91894531 9.90234375 C-3.31568636 6.58337623 -1.65419518 3.29381595 0 0 Z " fill="#000000" transform="translate(1180,244)"/>
<path d="M0 0 C0.66 0 1.32 0 2 0 C2.23074219 0.71317383 2.46148438 1.42634766 2.69921875 2.16113281 C10.56226591 26.36408923 18.50855887 49.65898635 32.75 70.92578125 C34 73 34 73 34 75 C34.66 75 35.32 75 36 75 C37.3671875 76.828125 37.3671875 76.828125 38.875 79.25 C41.00223475 82.57119739 43.15026385 85.25986909 46 88 C46 88.66 46 89.32 46 90 C47.485 90.495 47.485 90.495 49 91 C50.33895632 92.66215268 51.67130142 94.32963607 53 96 C54.06454938 96.91807575 55.1485124 97.81408513 56.25 98.6875 C57.61125 99.8321875 57.61125 99.8321875 59 101 C59 101.66 59 102.32 59 103 C59.52980469 103.23589844 60.05960938 103.47179687 60.60546875 103.71484375 C63.71767545 105.38517981 66.47750738 107.470553 69.3125 109.5625 C80.26480494 117.50096686 91.7829636 124.198614 104 130 C103.45693878 133.53294882 102.67925677 135.9294396 100.5625 138.8125 C100.13066406 139.41707031 99.69882812 140.02164063 99.25390625 140.64453125 C98.84011719 141.09183594 98.42632813 141.53914062 98 142 C97.34 142 96.68 142 96 142 C95.67 142.99 95.34 143.98 95 145 C94.34 145 93.68 145 93 145 C92.67 145.99 92.34 146.98 92 148 C73.47808097 161.72632139 50.80930103 165.3988417 28.65258789 169.59301758 C23.21175681 170.65754024 18.1292492 172.13023233 12.99609375 174.265625 C11 175 11 175 8 175 C6.24979187 172.52767802 4.7379049 170.12586405 3.25 167.5 C2.58629395 166.34455688 2.58629395 166.34455688 1.90917969 165.16577148 C-19.91100094 126.46620167 -26.52756335 79.14059601 -14.609375 36.12841797 C-10.95599858 23.36794695 -6.28051167 11.70024255 0 0 Z " fill="#000000" transform="translate(868,210)"/>
<path d="M0 0 C7 0 7 0 8.80444336 1.19335938 C9.22862549 1.73798828 9.65280762 2.28261719 10.08984375 2.84375 C10.56357422 3.43027344 11.03730469 4.01679687 11.52539062 4.62109375 C11.99138672 5.24113281 12.45738281 5.86117187 12.9375 6.5 C13.67709961 7.43005859 13.67709961 7.43005859 14.43164062 8.37890625 C15.64022616 9.90430547 16.82279164 11.45025735 18 13 C21.69073067 9.40374195 24.87393408 5.68768882 27.9609375 1.57421875 C30.89968586 -0.69458506 33.38468166 -0.10547078 37 0 C37.02464775 5.53588533 37.04283496 11.071739 37.05493164 16.60766602 C37.05997244 18.4924373 37.06680498 20.37720465 37.07543945 22.26196289 C37.08751617 24.96501636 37.09323068 27.66801831 37.09765625 30.37109375 C37.10281754 31.21900986 37.10797882 32.06692596 37.11329651 32.9405365 C37.11349195 34.96071068 37.06206211 36.98077934 37 39 C36 40 36 40 33 40.125 C30 40 30 40 29 39 C28.84235595 37.22130274 28.74899323 35.43681524 28.68359375 33.65234375 C28.64169922 32.57275391 28.59980469 31.49316406 28.55664062 30.38085938 C28.51732422 29.24455078 28.47800781 28.10824219 28.4375 26.9375 C28.39431641 25.79732422 28.35113281 24.65714844 28.30664062 23.48242188 C28.20017161 20.65507805 28.09815793 17.82764262 28 15 C27.66226563 15.5053125 27.32453125 16.010625 26.9765625 16.53125 C26.53054688 17.1809375 26.08453125 17.830625 25.625 18.5 C25.18414063 19.1496875 24.74328125 19.799375 24.2890625 20.46875 C23.86367188 20.9740625 23.43828125 21.479375 23 22 C22.34 22 21.68 22 21 22 C20.67 22.99 20.34 23.98 20 25 C18.68 24.67 17.36 24.34 16 24 C16 23.34 16 22.68 16 22 C15.34 22 14.68 22 14 22 C12.7109375 20.46875 12.7109375 20.46875 11.375 18.5 C10.92898438 17.8503125 10.48296875 17.200625 10.0234375 16.53125 C9.68570313 16.0259375 9.34796875 15.520625 9 15 C8.97494385 15.72179443 8.9498877 16.44358887 8.92407227 17.18725586 C8.80848698 20.437535 8.68559226 23.68749688 8.5625 26.9375 C8.52318359 28.07380859 8.48386719 29.21011719 8.44335938 30.38085938 C8.40146484 31.46044922 8.35957031 32.54003906 8.31640625 33.65234375 C8.26141968 35.15269165 8.26141968 35.15269165 8.20532227 36.68334961 C8 39 8 39 7 40 C4.69 40 2.38 40 0 40 C0 26.8 0 13.6 0 0 Z " fill="#000000" transform="translate(571,120)"/>
<path d="M0 0 C6 0 6 0 7.8984375 1.2421875 C8.38570312 1.78101562 8.87296875 2.31984375 9.375 2.875 C9.87773438 3.40867187 10.38046875 3.94234375 10.8984375 4.4921875 C12 6 12 6 12 8 C12.99 8.33 13.98 8.66 15 9 C16.60812665 10.73226275 18.14197316 12.5345009 19.625 14.375 C20.42164063 15.35210937 21.21828125 16.32921875 22.0390625 17.3359375 C24 20 24 20 25 23 C25.99 23.33 26.98 23.66 28 24 C28.02505615 23.30849854 28.0501123 22.61699707 28.07592773 21.90454102 C28.19152161 18.79032134 28.31441242 15.67643211 28.4375 12.5625 C28.47681641 11.47388672 28.51613281 10.38527344 28.55664062 9.26367188 C28.59853516 8.22919922 28.64042969 7.19472656 28.68359375 6.12890625 C28.72025146 5.17056885 28.75690918 4.21223145 28.79467773 3.22485352 C29 1 29 1 30 0 C32.31 0 34.62 0 37 0 C37 13.2 37 26.4 37 40 C30 40 30 40 28.23071289 38.87353516 C27.8155542 38.35065918 27.40039551 37.8277832 26.97265625 37.2890625 C26.49425293 36.70793701 26.01584961 36.12681152 25.52294922 35.52807617 C24.80002686 34.58605347 24.80002686 34.58605347 24.0625 33.625 C23.54961426 32.99247314 23.03672852 32.35994629 22.50830078 31.70825195 C20.98455272 29.82110453 19.49000763 27.91384104 18 26 C16.45946769 24.06159793 14.91798015 22.12395414 13.375 20.1875 C12.76398437 19.39730469 12.15296875 18.60710937 11.5234375 17.79296875 C10.1094221 15.89136245 10.1094221 15.89136245 8 15 C7.67 23.25 7.34 31.5 7 40 C4.69 40 2.38 40 0 40 C0 26.8 0 13.6 0 0 Z " fill="#000000" transform="translate(658,120)"/>
<path d="M0 0 C2.31 0 4.62 0 7 0 C7 0.66 7 1.32 7 2 C7.66 2 8.32 2 9 2 C10.44074715 3.782129 11.80510649 5.62660276 13.125 7.5 C14.21167969 9.03140625 14.21167969 9.03140625 15.3203125 10.59375 C15.87460937 11.3878125 16.42890625 12.181875 17 13 C20.37161357 11.87612881 20.72035171 11.29600597 22.5625 8.4375 C23.81640625 6.49609375 23.81640625 6.49609375 25 5 C25.66 5 26.32 5 27 5 C27.309375 4.360625 27.61875 3.72125 27.9375 3.0625 C29 1 29 1 30 0 C31.98 0 33.96 0 36 0 C36 13.2 36 26.4 36 40 C33.69 40 31.38 40 29 40 C28.505 27.625 28.505 27.625 28 15 C26.7625 16.65 25.525 18.3 24.25 20 C22.140625 22.8125 22.140625 22.8125 20 25 C18.68 25 17.36 25 16 25 C12.97923528 21.91308715 10.59824947 18.46433262 8 15 C7.67 23.25 7.34 31.5 7 40 C4.69 40 2.38 40 0 40 C0 26.8 0 13.6 0 0 Z " fill="#000000" transform="translate(526,120)"/>
<path d="M0 0 C4.76410289 2.98924103 9.35646323 6.92420873 10.8671875 12.515625 C11.95032455 20.91654163 10.79573566 26.12490702 6 33.25 C1.10506683 38.03615688 -3.61374817 39.15240735 -10.375 39.375 C-16.75029261 39.16366433 -21.39463182 37.51988048 -26.125 33.1875 C-30.89977357 27.9670809 -31.21076441 22.45588347 -31.0625 15.6171875 C-30.48651693 9.58736473 -27.32861114 5.79763892 -22.8125 2 C-15.71342106 -2.2014957 -7.86434088 -2.06277793 0 0 Z M-17.8125 8 C-21.04296004 11.09000525 -22.58296207 13.19661723 -23.8125 17.5 C-23.8125 23.08603369 -21.89035338 25.81949391 -18.1875 29.875 C-14.47449263 32.21281946 -12.43565234 32.79587436 -8.1328125 32.5625 C-3.95749025 31.55030067 -0.74890713 29.07873299 2.1875 26 C3.77404821 21.24035537 3.95229546 16.86950001 2.0625 12.25 C-0.83443832 8.77367401 -4.03807367 6.68247167 -8.25 5.0625 C-11.93595244 4.97259872 -14.74529987 6.0742465 -17.8125 8 Z " fill="#000000" transform="translate(312.8125,121)"/>
<path d="M0 0 C0.886875 0.495 1.77375 0.99 2.6875 1.5 C2.6875 2.16 2.6875 2.82 2.6875 3.5 C3.6775 3.83 4.6675 4.16 5.6875 4.5 C10.19448351 9.52702007 10.0321445 14.95518869 9.96875 21.453125 C9.44359497 27.14230452 7.30414131 30.88335869 3.3125 34.875 C-3.24491857 38.93435436 -9.75480239 39.1962365 -17.3125 38.5 C-19.92248314 37.74367323 -21.91255789 36.80905933 -24.3125 35.5 C-24.3125 34.84 -24.3125 34.18 -24.3125 33.5 C-25.3025 33.17 -26.2925 32.84 -27.3125 32.5 C-30.91808441 27.40976318 -32.61664509 22.78566525 -32.3125 16.5 C-31.55514373 13.06792983 -30.53005576 9.79496728 -29.3125 6.5 C-28.6525 6.5 -27.9925 6.5 -27.3125 6.5 C-26.91998047 5.57960938 -26.91998047 5.57960938 -26.51953125 4.640625 C-21.76319769 -3.79455556 -7.80757839 -3.31663391 0 0 Z M-20.3125 8.5 C-23.22865437 11.70776981 -24.5512379 14.22183305 -24.8125 18.5 C-24.57829156 22.7238281 -23.08516445 25.27771428 -20.3125 28.5 C-16.58209107 31.69749337 -13.20379953 31.97414177 -8.45703125 31.77734375 C-5.33451288 31.37352079 -3.67596827 30.59335761 -1.3125 28.5 C1.15847178 25.28123412 2.54877523 22.47107341 3.125 18.4375 C2.37210208 13.38232825 0.83791067 10.44589322 -3.125 7.1875 C-9.875338 3.61379165 -14.18468226 4.18445176 -20.3125 8.5 Z " fill="#000000" transform="translate(508.3125,121.5)"/>
<path d="M0 0 C2.31 0 4.62 0 7 0 C7 5.61 7 11.22 7 17 C13.27 17 19.54 17 26 17 C26 11.39 26 5.78 26 0 C28.31 0 30.62 0 33 0 C33 13.2 33 26.4 33 40 C30.69 40 28.38 40 26 40 C26 34.39 26 28.78 26 23 C19.73 23 13.46 23 7 23 C7 28.61 7 34.22 7 40 C4.69 40 2.38 40 0 40 C0 26.8 0 13.6 0 0 Z " fill="#000000" transform="translate(241,120)"/>
<path d="M0 0 C1.4540625 0.0309375 1.4540625 0.0309375 2.9375 0.0625 C4.87974026 4.32937464 6.81848607 8.59781394 8.75415039 12.86767578 C9.41174409 14.31699359 10.07025491 15.76589566 10.72973633 17.21435547 C11.68297774 19.30845583 12.63280053 21.40407912 13.58203125 23.5 C13.8727803 24.13679688 14.16352936 24.77359375 14.46308899 25.4296875 C16.48651959 29.90940039 18.24877356 34.44590216 19.9375 39.0625 C18.9375 40.0625 18.9375 40.0625 15.375 40.125 C14.240625 40.104375 13.10625 40.08375 11.9375 40.0625 C11.09930842 38.44000059 10.2670884 36.81441503 9.4375 35.1875 C8.9734375 34.28257812 8.509375 33.37765625 8.03125 32.4453125 C6.9375 30.0625 6.9375 30.0625 6.9375 28.0625 C2.3175 28.3925 -2.3025 28.7225 -7.0625 29.0625 C-8.7125 32.6925 -10.3625 36.3225 -12.0625 40.0625 C-14.3725 40.0625 -16.6825 40.0625 -19.0625 40.0625 C-18.46172777 35.10468496 -16.90783632 30.8411462 -14.9375 26.29296875 C-14.63054199 25.57136063 -14.32358398 24.8497525 -14.00732422 24.10627747 C-13.36147803 22.59142626 -12.71249717 21.07790804 -12.06054688 19.56567383 C-11.05935278 17.24269779 -10.06796308 14.91572517 -9.078125 12.58789062 C-8.44848059 11.11434224 -7.81829157 9.64102642 -7.1875 8.16796875 C-6.88956543 7.47011765 -6.59163086 6.77226654 -6.28466797 6.05326843 C-3.70257626 0.07556278 -3.70257626 0.07556278 0 0 Z M-1.0625 13.0625 C-2.0525 16.0325 -3.0425 19.0025 -4.0625 22.0625 C-1.4225 22.0625 1.2175 22.0625 3.9375 22.0625 C3.4879955 20.74695015 3.02760284 19.43511642 2.5625 18.125 C2.17964844 17.02865234 2.17964844 17.02865234 1.7890625 15.91015625 C1.08478587 13.87567884 1.08478587 13.87567884 -1.0625 13.0625 Z " fill="#000000" transform="translate(181.0625,119.9375)"/>
<path d="M0 0 C2.31 0 4.62 0 7 0 C7.0093457 0.79172607 7.01869141 1.58345215 7.02832031 2.39916992 C7.08209344 5.99590708 7.16572963 9.59135352 7.25 13.1875 C7.26417969 14.43337891 7.27835938 15.67925781 7.29296875 16.96289062 C7.32519531 18.16494141 7.35742188 19.36699219 7.390625 20.60546875 C7.41157227 21.71043701 7.43251953 22.81540527 7.45410156 23.95385742 C8.11535741 27.64370051 9.39478976 29.34906838 12 32 C16.00887578 33.07279774 19.84998114 32.6037599 23.5 30.6875 C26.34292358 27.48921098 26.17673135 24.11001038 26.31640625 20.01953125 C26.35830078 18.85615234 26.40019531 17.69277344 26.44335938 16.49414062 C26.48267578 15.27919922 26.52199219 14.06425781 26.5625 12.8125 C26.60568359 11.58595703 26.64886719 10.35941406 26.69335938 9.09570312 C26.7995309 6.06391619 26.90157952 3.03204685 27 0 C29.31 0 31.62 0 34 0 C34.08751499 4.52071021 34.1405661 9.0412007 34.1875 13.5625 C34.21263672 14.83931641 34.23777344 16.11613281 34.26367188 17.43164062 C34.32267755 25.00403515 34.22371054 30.54820926 29.6875 36.8125 C24.13576027 40.71927981 17.52041782 40.62191765 11 40 C5.62157154 38.14199744 2.53918244 35.07836487 0 30 C-0.08573394 27.74879258 -0.10712188 25.49500697 -0.09765625 23.2421875 C-0.0962413 22.57913605 -0.09482635 21.91608459 -0.09336853 21.23294067 C-0.08776754 19.11358137 -0.075215 16.99432741 -0.0625 14.875 C-0.05748512 13.43880361 -0.05292219 12.00260556 -0.04882812 10.56640625 C-0.03779782 7.04423655 -0.02053259 3.52212855 0 0 Z " fill="#000000" transform="translate(616,120)"/>
<path d="M0 0 C0 2.31 0 4.62 0 7 C-5.42890717 6.18566392 -5.42890717 6.18566392 -7.8984375 5.3828125 C-12.69367218 3.84757926 -15.58320374 4.06367213 -20.23828125 5.98046875 C-23.48440868 7.85904804 -24.80725903 9.42177708 -26 13 C-26.34231315 18.30585376 -26.53140599 21.73795828 -23 26 C-19.13143962 29.39964397 -15.37565843 29.4369596 -10.4375 29.3046875 C-7.1998521 28.89998151 -4.79494648 27.63606623 -2 26 C-1.01 26 -0.02 26 1 26 C1 28.64 1 31.28 1 34 C-6.52827189 37.19381232 -14.29666015 38.51897996 -22.33203125 36.37890625 C-27.71782069 34.06188402 -31.14783807 30.05296509 -34 25 C-35.92747206 19.03180339 -35.6456736 12.65212088 -33 7 C-25.43989205 -4.25562398 -11.8284414 -6.60192078 0 0 Z " fill="#000000" transform="translate(158,123)"/>
<path d="M0 0 C1 1 1 1 1.0625 4.5625 C1.041875 5.696875 1.02125 6.83125 1 8 C-4.42890717 7.18566392 -4.42890717 7.18566392 -6.8984375 6.3828125 C-11.62143444 4.87070676 -14.68023878 4.90131124 -19.23828125 6.9609375 C-22.61730137 8.95388506 -24.41367904 11.14523306 -25.59765625 14.890625 C-26.3782359 18.86172926 -26.196507 20.61426404 -24.3125 24.3125 C-20.62166323 28.62248936 -20.62166323 28.62248936 -15.4140625 30.3984375 C-9.79690027 30.35123446 -5.91203185 30.02278883 -1 27 C-0.34 27 0.32 27 1 27 C1 29.64 1 32.28 1 35 C-6.18624371 38.31672786 -13.29344816 39.2657786 -21.11328125 37.53125 C-26.39297639 35.5645343 -30.67001112 31.69164416 -33.1484375 26.67578125 C-35.0120509 20.8199318 -34.80717647 14.33656347 -32.8125 8.5625 C-24.75550245 -2.82842758 -12.78524184 -4.82998025 0 0 Z " fill="#000000" transform="translate(410,122)"/>
<path d="M0 0 C0 2.64 0 5.28 0 8 C-5.42890717 7.18566392 -5.42890717 7.18566392 -7.8984375 6.3828125 C-12.58443722 4.88255172 -15.69870999 4.86720719 -20.23828125 6.8828125 C-23.89288234 9.20036441 -25.3741954 12.51371408 -27 16.375 C-27 20.4354876 -25.30040093 23.69792299 -23 27 C-19.12686439 30.68073362 -15.82041812 30.42776038 -10.69921875 30.3046875 C-7.32146468 29.92340701 -4.87926191 28.77185348 -2 27 C-1.34 27 -0.68 27 0 27 C0 29.64 0 32.28 0 35 C-6.9045093 38.85367961 -14.80209993 39.4720453 -22.44140625 37.30859375 C-28.15446109 34.71766376 -31.65379831 30.88471792 -34.3125 25.1875 C-35.77025039 18.4288391 -35.72031996 12.91024955 -32.26953125 6.7890625 C-24.79130072 -3.74949007 -11.31215376 -4.20917349 0 0 Z " fill="#000000" transform="translate(470,122)"/>
<path d="M0 0 C4.99608185 -0.78885503 4.99608185 -0.78885503 8 0 C10.86903233 2.65452524 13.04727321 5.61934174 15 9 C15 9.66 15 10.32 15 11 C18.80314506 9.21028468 20.58628694 7.25855584 22.8125 3.8125 C25.37704182 0.14982538 25.37704182 0.14982538 28.16015625 -0.51953125 C30.375 -0.5 30.375 -0.5 34 0 C33.4739075 3.78786597 32.61896089 6.17152224 30 9 C29.34 9 28.68 9 28 9 C27.7525 9.53625 27.505 10.0725 27.25 10.625 C26 13 26 13 23.96875 15.46875 C21.00973062 19.86958456 21.32662343 24.73426474 21.25 29.875 C21.20552734 31.33679688 21.20552734 31.33679688 21.16015625 32.828125 C21.08984136 35.21883127 21.03695766 37.60858434 21 40 C18.69 40 16.38 40 14 40 C12.61965216 37.23930432 12.9962666 34.70157911 13.01416016 31.67602539 C12.95261209 20.58782349 10.74089642 15.16189254 3 7 C0 3.430131 0 3.430131 0 0 Z " fill="#000000" transform="translate(752,120)"/>
<path d="M0 0 C10.89 0 21.78 0 33 0 C33 2.31 33 4.62 33 7 C28.71 7 24.42 7 20 7 C20 17.89 20 28.78 20 40 C17.69 40 15.38 40 13 40 C13 29.11 13 18.22 13 7 C8.71 7 4.42 7 0 7 C0 4.69 0 2.38 0 0 Z " fill="#000000" transform="translate(717,120)"/>
<path d="M0 0 C10.89 0 21.78 0 33 0 C33 2.31 33 4.62 33 7 C28.71 7 24.42 7 20 7 C20 17.89 20 28.78 20 40 C17.69 40 15.38 40 13 40 C13 29.11 13 18.22 13 7 C8.71 7 4.42 7 0 7 C0 4.69 0 2.38 0 0 Z " fill="#000000" transform="translate(202,120)"/>
<path d="M0 0 C2.31 0 4.62 0 7 0 C8 1 8 1 8.11352539 4.05102539 C8.11336634 5.39991271 8.10767612 6.74880614 8.09765625 8.09765625 C8.0962413 8.80651474 8.09482635 9.51537323 8.09336853 10.24571228 C8.08775443 12.51801712 8.07519963 14.79022475 8.0625 17.0625 C8.05748681 18.59960796 8.05292359 20.13671745 8.04882812 21.67382812 C8.0386297 25.44928667 8.01905732 29.22453404 8 33 C13.28 33 18.56 33 24 33 C24 35.31 24 37.62 24 40 C16.08 40 8.16 40 0 40 C0 26.8 0 13.6 0 0 Z " fill="#000000" transform="translate(331,120)"/>
<path d="M0 0 C2.31 0 4.62 0 7 0 C7 13.2 7 26.4 7 40 C4.69 40 2.38 40 0 40 C-1.84276509 38.15723491 -1.12874411 35.57036241 -1.13894653 33.11865234 C-1.1369223 32.29574707 -1.13489807 31.4728418 -1.1328125 30.625 C-1.13376923 29.78533691 -1.13472595 28.94567383 -1.13571167 28.08056641 C-1.13639348 26.30175705 -1.13453917 24.52294523 -1.13037109 22.74414062 C-1.12502283 20.01166224 -1.13031605 17.27934824 -1.13671875 14.546875 C-1.13605797 12.8229163 -1.13477681 11.09895771 -1.1328125 9.375 C-1.13483673 8.55209473 -1.13686096 7.72918945 -1.13894653 6.88134766 C-1.11495054 1.11495054 -1.11495054 1.11495054 0 0 Z " fill="#000000" transform="translate(704,120)"/>
<path d="M0 0 C2.31 0 4.62 0 7 0 C7 13.2 7 26.4 7 40 C4.69 40 2.38 40 0 40 C0 26.8 0 13.6 0 0 Z " fill="#000000" transform="translate(361,120)"/>
</svg>
